<svg id="Layer_1" enable-background="new 0 0 512 512" height="512" viewBox="0 0 512 512" width="512" xmlns="http://www.w3.org/2000/svg"><g><path d="m495.79 6.76c-4.24-4.42-9.73-6.76-15.9-6.76h-1.53c-11.69 0-21.31 9.22-21.91 20.98 0 .04 0 .08-.01.12-1.19 31.41-7.51 55.37-19.87 75.39-9.51 15.35-23.01 28.7-36.31 41.56-36.13-35.8-88.13-56.15-144.21-56.15-56.16 0-108.2 20.36-144.33 56.15-13.31-12.86-26.8-26.21-36.3-41.54-12.38-20.04-18.69-44-19.88-75.38-.41-11.85-10.03-21.13-21.92-21.13h-1.53c-6.22 0-11.67 2.34-15.79 6.77-4.21 4.28-6.33 9.77-6.13 15.97 3.32 83.19 37.93 116.76 71.4 149.23.84.82 1.68 1.63 2.53 2.45-11.39 20.84-17.39 43.83-17.39 66.93 0 31.36 10.77 61.71 31.13 87.75 19.62 25.09 47.09 44.95 79.46 57.46 9.39 3.61 15.23 12.04 15.23 21.99v19.42c0 5.89 1.14 11.32 3.46 16.54l9.14 20.82c1.42 3.54 2.01 6.32 2.01 9.58v28.12c0 4.95 4.01 8.96 8.96 8.96h79.88c4.95 0 8.96-4.01 8.96-8.96v-28.12c0-3.51.57-6.26 1.97-9.5l9.04-20.86c2.34-5.27 3.48-10.69 3.48-16.59v-19.42c0-9.95 5.83-18.38 15.24-21.99 32.36-12.5 59.84-32.36 79.45-57.45 20.37-26.05 31.14-56.39 31.14-87.75 0-23.1-5.99-46.09-17.38-66.93.77-.75 1.54-1.49 2.31-2.23 16.83-16.29 34.23-33.13 47.46-55.99 14.96-25.85 22.63-55.52 24.15-93.37.36-6.02-1.71-11.57-6.01-16.07z" fill="#f47c7c"/><path d="m495.79 6.76c-4.24-4.42-9.73-6.76-15.9-6.76h-1.53c-1.65 0-3.26.2-4.81.55 1.3.89 2.52 1.92 3.65 3.12 4.29 4.56 6.37 10.19 6.01 16.29-1.52 38.38-9.2 68.46-24.15 94.68-13.22 23.18-30.63 40.26-47.46 56.77-.01.01-.02.02-.02.02-1.34 1.31-1.69 3.34-.83 5 10.45 20.39 15.93 42.7 15.93 65.1 0 31.8-10.77 62.57-31.14 88.98-19.62 25.44-47.09 45.58-79.45 58.26-9.4 3.67-15.24 12.21-15.24 22.3v19.69c0 5.97-1.14 11.48-3.48 16.82l-9.04 21.16c-1.3 3.04-1.97 6.32-1.97 9.63v28.52c0 1.89-.57 3.65-1.55 5.11h11.18c4.95 0 8.96-4.01 8.96-8.96v-28.12c0-3.51.57-6.26 1.97-9.5l9.04-20.86c2.34-5.27 3.48-10.69 3.48-16.59v-19.42c0-9.95 5.83-18.38 15.24-21.99 32.36-12.5 59.84-32.36 79.45-57.45 20.37-26.05 31.14-56.39 31.14-87.75 0-23.1-5.99-46.09-17.38-66.93.77-.75 1.54-1.49 2.31-2.23 16.83-16.29 34.23-33.13 47.46-55.99 14.96-25.85 22.63-55.52 24.15-93.37.35-6.03-1.72-11.58-6.02-16.08z" fill="#ee6161"/><path d="m38.43 19.77c1.38 34.47 8.66 60.8 22.91 82.81 8.53 13.12 20.03 25.08 31.95 36.39 5.25 4.98 13.52 4.57 18.34-.83l.09-.1c-2.52-2.38-4.93-4.73-7.25-7.07-10.83-10.71-21.28-21.92-29.05-34.47-12.38-20.03-18.69-43.99-19.88-75.37-.41-11.85-10.03-21.13-21.92-21.13h-.79c-1.94 0-3.81.2-5.61.57 6.54 4.15 10.92 11.13 11.21 19.2z" fill="#ee6161"/><path d="m256.05 109.31c-89.26 0-161.89 59.23-161.89 132.04 0 29.83 11.84 57.96 34.24 81.36 21.33 22.28 51.4 38.65 84.73 46.12 10.9 2.38 18.51 11.84 18.51 23.01v120.16h48.8v-120.16c0-11.18 7.56-20.64 18.44-23.02 33.29-7.46 63.36-23.84 84.69-46.11 22.4-23.4 34.24-51.53 34.24-81.36.01-72.81-72.56-132.04-161.76-132.04z" fill="#ffd772"/><path d="m417.55 249c.17-2.54.27-5.09.27-7.65 0-72.81-72.57-132.04-161.77-132.04-89.26 0-161.89 59.23-161.89 132.04 0 2.57.09 5.13.27 7.67l.11-.02c36.19 0 44.43-19.53 80.75-19.53 36.19 0 44.43 19.53 80.75 19.53 36.19 0 44.43-19.53 80.75-19.53 36.33 0 44.44 19.53 80.76 19.53z" fill="#e94444"/><path d="m393 245.43c-1.27 27.94-13 54.22-34.12 76.28-21.33 22.28-51.4 38.65-84.69 46.11-10.88 2.38-18.44 11.84-18.44 23.02v120.16h-24.1v1h48.8v-120.16c0-11.18 7.56-20.64 18.44-23.02 33.29-7.46 63.36-23.84 84.69-46.11 20.48-21.39 32.12-46.73 33.97-73.71-9.9 0-17.7-1.46-24.55-3.57z" fill="#fbba58"/><path d="m417.55 249c.17-2.54.27-5.09.27-7.65 0-72.81-72.57-132.04-161.77-132.04-1.45 0-2.89.02-4.32.05 79.62 8.2 141.39 63.82 141.39 131 0 1.7-.04 3.39-.12 5.08 6.85 2.1 14.65 3.56 24.55 3.56z" fill="#d83131"/><g clip-rule="evenodd" fill="#fbba58" fill-rule="evenodd"><path d="m184.89 287.59c4.36 0 8.01-3.53 8.01-8 0-4.35-3.65-7.88-8.01-7.88s-8.01 3.53-8.01 7.88c0 4.47 3.65 8 8.01 8z"/><path d="m256.05 287.59c4.36 0 7.89-3.53 7.89-8 0-4.35-3.53-7.88-7.89-7.88-4.48 0-8.01 3.53-8.01 7.88 0 4.47 3.53 8 8.01 8z"/><path d="m327.09 287.59c4.48 0 8.01-3.53 8.01-8 0-4.35-3.53-7.88-8.01-7.88-4.36 0-7.89 3.53-7.89 7.88 0 4.47 3.53 8 7.89 8z"/><path d="m221.29 313.71c4.48 0 8.01 3.65 8.01 8s-3.53 8-8.01 8c-4.36 0-7.89-3.65-7.89-8s3.53-8 7.89-8zm69.39 0c4.36 0 8.01 3.65 8.01 8s-3.65 8-8.01 8c-4.48 0-8.01-3.65-8.01-8s3.54-8 8.01-8z"/></g></g></svg>