<svg id="Layer_1" height="512" viewBox="0 0 218.7294 145.1083" width="512" xmlns="http://www.w3.org/2000/svg"><g><path d="m107.1459 18.5473c-2.5179-1.3585-5.6828-1.3207-8.2322.373-2.6461 1.7584-3.8976 4.8194-3.4878 7.7691-2.3124 1.2832-4.0901 2.204-4.0901 2.204l-.9514.4725s-.9583.4682-1.1894.5769c0 0-1.4902.684-1.1047 1.5031l1.5721 3.3409c.3859.8201 1.8615.1051 1.8615.1051.2324-.106 1.2039-.546 1.2039-.546l.9692-.4345s1.8859-.8005 4.391-1.7789l12.9326 19.462-27.894-.2178c-.0215-.0005-.0425-.0005-.064-.0005-.2693 0-.5354.014-.798.0401-4.5464 5.7357-11.567 9.4255-19.4376 9.4255-6.1015 0-11.6916-2.2191-16.0162-5.887-.2513-.1512-.5113-.2924-.7839-.418-4.0107-1.8477-8.7646-.0938-10.6128 3.9204l-34.6787 75.3025c-1.8481 4.0137-.0928 8.7646 3.9204 10.6133 1.0835.499 2.2212.7354 3.3413.7354 3.0264 0 5.9224-1.7266 7.2715-4.6553l27.2214-59.1101 10.8394 52.9764c.0053.0263.0106.0525.0161.0787l.0958.4684c.2307.9662.5868 1.8566 1.0241 2.6725 2.0732 4.035 6.2677 6.8009 11.116 6.8009h52.402 88.2459c6.9033 0 12.5-5.5967 12.5-12.5s-5.5967-12.5-12.5-12.5h-88.2459-11.4188l12.5656-8.2466 9.1904 5.9468h46.0198l-48.468-31.3613c-4.1582-2.6895-9.5107-2.6729-13.6494.0444l-15.4961 10.1702 3.664-28.103s-.0403-.1009-.1146-.2792l25.6813.2006h.063c2.9351 0 5.6367-1.6079 7.0352-4.1924 1.4087-2.6025 1.2651-5.7705-.3726-8.2354l-18.1047-27.245c3.237-.336 6.1386-.759 9.2643-2.2298 4.8378-2.2764 22.65-10.6579 22.65-10.6579.8978-.4224 1.2932-1.4741.8812-2.3498l-5.5566-11.8087c-.4113-.874-1.4736-1.2397-2.3714-.8172 0 0-17.8122 8.3815-22.65 10.6579-4.0035 1.8839-6.4582 4.5843-9.6501 7.7138zm27.054-7.9899 3.1578 6.7108-13.5724 6.3865-3.1578-6.7109z"/><circle cx="62.827" cy="36.042" r="22.5"/></g></svg>