<svg id="Layer_1" enable-background="new 0 0 103.133 237.67" height="512" viewBox="0 0 103.133 237.67" width="512" xmlns="http://www.w3.org/2000/svg"><g><path d="m76.562 97.889c.026.007.056.015.082.022v-.173z"/><path d="m66.366 115.721c-1.304 1.608-2.786 2.962-4.374 4.024 2.404 4.429 2.832 9.875.693 14.854l-.407.949-.341.793c-1.564 3.645-4.265 6.452-7.504 8.215l11.012 82.387c.904 6.77 7.125 11.521 13.893 10.617s11.521-7.123 10.617-13.893l-13.311-99.586v-5.628c-.254-.051-.516-.109-.774-.164-2.873-.61-6.013-1.459-9.504-2.568z"/><ellipse cx="49.598" cy="22.5" rx="22.495" ry="22.495" transform="matrix(.974 -.227 .227 .974 -3.81 11.834)"/><path d="m81.364 89.141c1.131 1.836 2.161 3.637 3.017 5.326 1.513 2.881 2.376 5.524 2.651 6.99-.289.025-.631.041-1.028.04-.043.001-.093-.001-.137-.001-1.961.003-5.057-.439-9.223-1.519-.349-.09-.708-.187-1.072-.287-2.43-.664-5.186-1.528-8.27-2.635-.018-.006-.033-.011-.051-.018-1.803-.642-3.682-.595-5.354 0-2.188.778-4.022 2.496-4.864 4.856-1.153 3.242-.081 6.726 2.412 8.812.707.592 1.523 1.078 2.443 1.405 2.006.708 3.906 1.342 5.719 1.909 2.874.898 5.52 1.62 7.982 2.167.354.079.707.155 1.055.227 3.429.707 6.502 1.067 9.35 1.084h.01c3.113-.01 6.059-.432 8.883-1.719h-.002c.001 0 .001-.001.002-.001.002-.001.003-.001.005-.002 2.572-1.155 4.963-3.243 6.359-5.773 1.423-2.522 1.884-5.195 1.882-7.574-.106-5.911-2.315-10.94-4.984-16.168-2.397-4.545-5.355-9.092-8.346-13.3-1.728 3.632-3.682 7.516-5.18 10.245z"/><path d="m.001 96.306c0 8.679 1.664 18.709 5.596 30.334 1.127 3.337 4.241 5.44 7.579 5.44.85 0 1.713-.136 2.563-.423 4.184-1.416 6.432-5.957 5.016-10.142-3.479-10.285-4.754-18.588-4.752-25.21.066-10.668 3.129-17.058 6.551-21.336v49.111l-13.31 99.586c-.904 6.77 3.852 12.988 10.617 13.893 6.768.904 12.988-3.848 13.895-10.617l10.742-80.381c-1.66-.174-3.321-.596-4.934-1.288l-1.742-.748c-4.235-1.818-7.348-5.165-8.991-9.118-1.706-4.104-1.828-8.86.059-13.256l.748-1.743c2.137-4.978 6.379-8.415 11.242-9.728-.527-3.055-.313-6.439.762-9.819l.81-2.549 9.285-29.216c1.494-4.698 4.289-12.199 6.232-16.724l.289-.673h-27.977c-.885 0-1.732.156-2.524.43-.082.023-.164.039-.246.065l-.002-.002c-.757.257-7.375 2.405-14.176 9.109-6.821 6.639-13.41 18.231-13.332 35.005z"/><path d="m49.136 107.118c-.021.875.049 1.713.209 2.485.151.732.38 1.404.682 1.989.502.969 1.199 1.704 2.07 2.078 1.699.73 3.929.053 5.911-1.565-3.003-2.621-4.274-6.905-2.858-10.882.389-1.093.962-2.083 1.669-2.95 1.866-2.29 4.693-3.7 7.753-3.7 1.141 0 2.268.193 3.357.583.12.043.229.08.349.122l7.737-14.095.629-1.144.512-.932c2.024-3.69 4.937-9.612 6.848-13.9.217-.485.424-.955.611-1.393l2.424-5.644c1.848-4.305-.162-9.339-4.467-11.187l-3.168-1.359c-4.305-1.849-9.338.16-11.186 4.465l-.691 1.61-.135.315-1.598 3.719c-.984 2.294-2.203 5.404-3.342 8.484-.998 2.699-1.936 5.375-2.598 7.46l-10.098 31.766c-.393 1.24-.589 2.489-.62 3.675z"/><path d="m54.109 132.982.75-1.744c1.726-4.02.085-8.675-3.646-10.778-.264-.149-.536-.286-.82-.408l-1.744-.748c-.16-.069-.323-.122-.485-.18-4.189-1.506-8.921.5-10.7 4.645l-.75 1.744c-1.544 3.601-.384 7.705 2.555 10.035.575.455 1.21.85 1.914 1.151l1.74.748c.883.379 1.795.587 2.705.655 2.516.189 5.001-.757 6.758-2.555.26-.267.504-.553.73-.855.387-.521.726-1.089.993-1.71z"/></g></svg>