<svg id="Layer_1" enable-background="new 0 0 216.819 229.833" height="512" viewBox="0 0 216.819 229.833" width="512" xmlns="http://www.w3.org/2000/svg"><g><ellipse cx="28.423" cy="22.5" rx="22.495" ry="22.495" transform="matrix(.974 -.227 .227 .974 -4.362 7.032)"/><path d="m41.304 138.681c-.081-.049-.166-.083-.246-.135-9.58-6.182-16.287-14.032-20.827-22.159-1.532-2.742-2.819-5.516-3.884-8.268-4.247-10.933-5.254-21.548-5.262-29.536.004-8.148 1.069-13.602 1.141-13.977.859-4.333 5.069-7.149 9.404-6.29 4.332.859 7.148 5.07 6.289 9.404-.065.342-.837 4.655-.834 10.863-.007 6.609.887 15.33 4.172 23.729 2.092 5.325 5.058 10.51 9.406 15.198-5-14.536-5.982-29.39-3.617-43.043 1.603-9.698-2.479-19.954-11.08-25.036-8.468-5.045-20.308.571-23.41 14.915-4.155 19.749-3.334 41.028 3.128 61.688 2.68 8.814 8.96 15.511 15.539 18.675.897 6.021 1.611 13.357 1.604 21.414.007 14.224-2.218 30.578-9.167 46.108-2.817 6.302.011 13.694 6.314 16.512 1.656.74 3.388 1.091 5.092 1.091 4.781 0 9.345-2.758 11.422-7.404 8.782-19.688 11.334-39.549 11.34-56.307-.01-10.068-.929-19.047-2.06-26.313-.123.006-.245.022-.369.022-1.402-.001-2.814-.385-4.095-1.151z"/><path d="m48.666 126.792c-2.409-1.565-4.619-3.274-6.649-5.126-.087-.079-.172-.159-.258-.239-2.694-2.493-5.061-5.25-7.108-8.293-2.065-3.068-3.814-6.422-5.255-10.092-3.574-9.133-4.316-18.343-4.31-24.461-.004-6.576.834-11.047.869-11.236.316-1.586-.005-3.186-.895-4.518-.893-1.332-2.248-2.237-3.819-2.55-.39-.076-.784-.115-1.177-.115-2.85 0-5.321 2.033-5.877 4.834-.184.971-1.1 6.149-1.103 13.588.01 10.385 1.736 20.082 5.127 28.813.89 2.298 2.047 4.854 3.515 7.53 3.973 7.239 10.301 15.384 20.333 21.882.029.02.057.039.086.059.976.633 2.101.965 3.254.965.017 0 .033-.003.05-.003 2.028-.017 3.893-1.036 4.995-2.739.873-1.344 1.166-2.948.83-4.516-.336-1.57-1.263-2.912-2.608-3.783z"/><path d="m65.332 139.808c-2.271-1.524-4.69-2.883-7.26-4.039-1.009-.453-2.193-.004-2.647 1.002-.451 1.009-.005 2.193 1.004 2.646v-.002c2.361 1.063 4.582 2.309 6.675 3.713.342.23.729.34 1.11.34.645 0 1.277-.312 1.664-.886.616-.916.37-2.158-.546-2.774z"/><path d="m92.005 177.874c-.369-1.042-1.514-1.586-2.553-1.217-1.044.367-1.588 1.513-1.219 2.554.89 2.512 1.688 5.026 2.4 7.511.25.877 1.051 1.449 1.92 1.449.182 0 .367-.025.551-.078 1.061-.305 1.676-1.412 1.372-2.473-.732-2.558-1.551-5.15-2.471-7.746z"/><path d="m75.595 155.041c.393.512.986.78 1.586.78.426 0 .854-.135 1.218-.415.875-.674 1.039-1.929.365-2.804-1.679-2.182-3.488-4.262-5.441-6.206-.782-.78-2.048-.777-2.828.007-.779.781-.777 2.048.007 2.827h-.002c1.82 1.811 3.514 3.757 5.095 5.811z"/><path d="m84.439 161.156c-.549-.959-1.771-1.292-2.728-.74-.959.548-1.292 1.769-.741 2.728v.002c1.296 2.26 2.486 4.589 3.579 6.96.336.731 1.062 1.162 1.818 1.162.279 0 .564-.059.835-.184 1.004-.464 1.44-1.652.979-2.654-1.14-2.469-2.382-4.904-3.742-7.274z"/><path d="m93.026 196.308c.584 2.707 1.072 5.314 1.482 7.779.163.979 1.01 1.67 1.972 1.67.108 0 .218-.009.329-.026 1.088-.182 1.825-1.212 1.643-2.301-.417-2.519-.918-5.19-1.517-7.967-.233-1.08-1.298-1.765-2.376-1.531-1.078.231-1.766 1.296-1.533 2.376z"/><path d="m210.819 127.844h-17.167c-3.314 0-6 2.687-6 6v28.66c0 4.875-6.333 6.375-6.333 6.375h-67.5v8c0 15.834 21 19.5 21 19.5l6.666 32h75.334v-94.535c0-3.314-2.687-6-6-6z"/><path d="m105.334 222.344c-1.746 0-3.426.045-5.006.126.116-.272.181-.571.164-.887-.095-1.788-.285-4.586-.665-8.108-.117-1.098-1.104-1.893-2.201-1.773-1.1.116-1.893 1.104-1.776 2.201.37 3.44.558 6.169.649 7.893.018.346.13.661.3.937-3.532.347-6.191.899-7.335 1.557-8.026.181-14.212 1.291-14.212 2.639 0 1.473 7.388 2.666 16.5 2.666 7.563 0 13.923-.823 15.872-1.944 8.026-.181 14.211-1.291 14.211-2.638-.001-1.476-7.389-2.669-16.501-2.669z"/></g></svg>